<svg width="26" height="28" viewBox="0 0 26 28" fill="none" xmlns="http://www.w3.org/2000/svg">
<path d="M12.9844 0.835205L0.078125 7.71021C0.078125 7.71021 0.169025 9.1069 0.703125 9.33521C1.38115 9.625 2.05778 9.3252 2.73438 8.89771V23.2102H4.35938V7.86658C4.5746 7.75538 4.79587 7.67288 5.01562 7.61658C7.53874 6.96988 10.1609 6.67908 12.7656 6.67908C15.365 6.67908 17.9981 6.96948 20.5156 7.61658C20.8479 7.70158 21.1652 7.86888 21.4844 8.05408V23.2102H23.0781V9.05408C23.6486 9.36588 24.2302 9.55278 24.8281 9.36658C25.4529 9.17198 25.9219 7.71021 25.9219 7.71021L12.9844 0.835205ZM14.4531 8.67908C14.0159 8.67918 13.6324 8.8356 13.3281 9.14771C13.0238 9.4599 12.8594 9.8512 12.8594 10.2727C12.8594 10.7094 13.0238 11.0623 13.3281 11.3666C13.6324 11.6709 14.0159 11.8352 14.4531 11.8352C14.8746 11.8352 15.2349 11.6709 15.5469 11.3666C15.8588 11.0623 16.0156 10.7094 16.0156 10.2727C16.0156 9.8512 15.8588 9.4599 15.5469 9.14771C15.2349 8.8356 14.8746 8.67918 14.4531 8.67908ZM10.0469 10.9602C9.94543 10.9872 9.83587 11.0776 9.76562 11.2102L7.45312 15.2102C7.2974 15.4755 7.34411 15.6947 7.60938 15.8352L8.35938 16.2727C8.62463 16.429 8.81264 16.3818 8.95312 16.1166L11.2969 12.0852C11.4531 11.8199 11.4059 11.6321 11.1406 11.4916L10.3906 11.0227C10.258 10.9447 10.1483 10.9332 10.0469 10.9602ZM12.8906 12.0227C12.3377 12.0867 11.8942 12.3908 11.5781 12.9291L9.45312 16.6166C9.31262 16.851 9.2499 17.1173 9.26562 17.4602L9.32812 22.1166L7.73438 25.5852C7.67198 25.7256 7.62462 25.8358 7.60938 25.9291C7.56217 26.2258 7.62517 26.5153 7.79688 26.7416C7.96855 26.9678 8.18769 27.1005 8.48438 27.1477C8.98347 27.2257 9.344 27.0377 9.54688 26.6166L11.3281 22.8352C11.3905 22.6948 11.4218 22.5534 11.4218 22.3977L11.3905 19.4916L13.203 21.9291L13.7343 26.2416C13.7971 26.7097 14.0789 26.9765 14.578 27.0541C14.9214 27.1011 15.1956 27.015 15.453 26.7727C15.7104 26.5308 15.8434 26.21 15.7968 25.8666L15.1718 21.0227C15.1094 20.6636 14.8795 20.4374 14.6718 20.1477L13.0781 17.9291L14.6406 15.2102L15.3906 16.2102C15.453 16.3042 15.5466 16.3824 15.6719 16.4291L17.3281 17.2416V26.3352C17.3281 26.4718 17.4416 26.5852 17.5781 26.5852C17.7147 26.5852 17.8281 26.4718 17.8281 26.3352V17.2727C17.9609 17.2347 18.0671 17.1691 18.1719 17.0541C18.3281 16.8824 18.4219 16.6788 18.4219 16.4602C18.4219 16.0702 18.2342 15.8039 17.8594 15.6791L16.5156 14.9291L14.6094 12.6166C14.3441 12.3046 13.9682 12.1008 13.4844 12.0227C13.2738 11.9917 13.0749 12.0007 12.8906 12.0227Z" fill="white"/>
</svg>
