<svg width="33" height="37" viewBox="0 0 33 37" fill="none" xmlns="http://www.w3.org/2000/svg">
<path d="M24.2188 23.8443C26.2158 20.798 27.1103 17.021 26.7232 13.2691C26.3361 9.51721 24.6961 6.06702 22.1312 3.60882C19.5662 1.15063 16.2656 -0.134296 12.8896 0.0111222C9.51359 0.15654 6.31118 1.72158 3.92307 4.39312C1.53496 7.06466 0.137251 10.6457 0.00958311 14.4198C-0.118085 18.1939 1.0337 21.8827 3.23451 24.7482C5.43532 27.6137 8.52284 29.4447 11.8794 29.8747C15.2359 30.3047 18.6139 29.3021 21.3376 27.0675H21.3355C21.3974 27.1597 21.4634 27.2473 21.5377 27.3326L29.478 36.209C29.8647 36.6416 30.3893 36.8848 30.9364 36.885C31.4835 36.8852 32.0083 36.6425 32.3953 36.2101C32.7823 35.7778 32.9998 35.1914 33 34.5798C33.0002 33.9682 32.783 33.3816 32.3963 32.9489L24.456 24.0726C24.3823 23.9891 24.303 23.9121 24.2188 23.842V23.8443ZM24.7509 14.9818C24.7509 16.647 24.4575 18.296 23.8875 19.8344C23.3174 21.3729 22.4819 22.7708 21.4285 23.9483C20.3752 25.1258 19.1247 26.0598 17.7485 26.6971C16.3723 27.3343 14.8972 27.6623 13.4076 27.6623C11.918 27.6623 10.4429 27.3343 9.0667 26.6971C7.69046 26.0598 6.43998 25.1258 5.38666 23.9483C4.33333 22.7708 3.49779 21.3729 2.92773 19.8344C2.35768 18.296 2.06427 16.647 2.06427 14.9818C2.06427 11.6187 3.25937 8.39338 5.38666 6.01532C7.51394 3.63726 10.3992 2.30128 13.4076 2.30128C16.416 2.30128 19.3013 3.63726 21.4285 6.01532C23.5558 8.39338 24.7509 11.6187 24.7509 14.9818Z" fill="white"/>
</svg>
