<svg width="24" height="21" viewBox="0 0 24 21" fill="none" xmlns="http://www.w3.org/2000/svg">
<path d="M8.76977 13.8016C5.84286 13.8016 0 15.2905 0 18.246V20.4683H17.5395V18.246C17.5395 15.2905 11.6967 13.8016 8.76977 13.8016ZM23.1303 4.73493C23.1412 4.61271 23.1522 4.49049 23.1522 4.35715C23.1522 4.22382 23.1412 4.1016 23.1193 3.97937L23.9305 3.33493C24.0072 3.27937 24.0182 3.16826 23.9744 3.09049L23.207 1.74604C23.1631 1.65715 23.0535 1.63493 22.9768 1.65715L22.034 2.04604C21.8367 1.89049 21.6175 1.76826 21.3873 1.66826L21.2448 0.634931C21.2365 0.588046 21.2122 0.545622 21.1761 0.515132C21.14 0.484643 21.0944 0.468045 21.0474 0.468264H19.5127C19.4141 0.468264 19.3373 0.534931 19.3264 0.634931L19.1839 1.66826C18.9537 1.76826 18.7344 1.9016 18.5371 2.04604L17.5834 1.65715C17.4957 1.62382 17.397 1.65715 17.3532 1.74604L16.5858 3.09049C16.542 3.17937 16.5529 3.27937 16.6297 3.33493L17.4409 3.97937C17.3973 4.22929 17.3973 4.48502 17.4409 4.73493L16.6297 5.37937C16.5529 5.43493 16.542 5.54604 16.5858 5.62382L17.3532 6.96826C17.397 7.05715 17.5066 7.07937 17.5834 7.05715L18.5371 6.66826C18.7344 6.82382 18.9537 6.94604 19.1839 7.04604L19.3264 8.07937C19.3373 8.17937 19.4141 8.24604 19.5127 8.24604H21.0474C21.1461 8.24604 21.2228 8.17937 21.2338 8.07937L21.3763 7.04604C21.6065 6.94604 21.8258 6.81271 22.0231 6.66826L22.9768 7.05715C23.0645 7.09049 23.1631 7.05715 23.207 6.96826L23.9744 5.62382C24.0182 5.53493 24.0072 5.43493 23.9305 5.37937L23.1303 4.73493ZM20.2801 5.74604C19.9167 5.74604 19.5681 5.59971 19.3112 5.33925C19.0542 5.07878 18.9098 4.72551 18.9098 4.35715C18.9098 3.9888 19.0542 3.63553 19.3112 3.37506C19.5681 3.11459 19.9167 2.96826 20.2801 2.96826C20.6435 2.96826 20.992 3.11459 21.249 3.37506C21.506 3.63553 21.6504 3.9888 21.6504 4.35715C21.6504 4.72551 21.506 5.07878 21.249 5.33925C20.992 5.59971 20.6435 5.74604 20.2801 5.74604ZM20.7405 10.1127L20.1924 9.14604C20.1595 9.07938 20.0828 9.05715 20.028 9.07937L19.3483 9.35715C19.2058 9.24604 19.0523 9.15715 18.8879 9.09049L18.7892 8.35715C18.778 8.32491 18.7572 8.29695 18.7298 8.27708C18.7023 8.2572 18.6695 8.24637 18.6358 8.24604H17.5395C17.4738 8.24604 17.419 8.29049 17.408 8.36826L17.3093 9.1016C17.1449 9.16826 16.9914 9.26826 16.8489 9.36826L16.1693 9.09049C16.1035 9.06826 16.0377 9.09049 16.0048 9.15715L15.4567 10.1238C15.4238 10.1905 15.4348 10.2572 15.4896 10.3016L16.0706 10.7572C16.0596 10.846 16.0487 10.9349 16.0487 11.0238C16.0487 11.1127 16.0596 11.2127 16.0706 11.2905L15.4896 11.746C15.4348 11.7905 15.4238 11.8683 15.4567 11.9238L16.0048 12.8905C16.0377 12.9572 16.1144 12.9794 16.1693 12.9572L16.8489 12.6794C16.9914 12.7905 17.1449 12.8794 17.3093 12.946L17.408 13.6794C17.419 13.7572 17.4738 13.8016 17.5395 13.8016H18.6358C18.7015 13.8016 18.7673 13.7572 18.7673 13.6794L18.866 12.946C19.0304 12.8794 19.1839 12.7794 19.3264 12.6794L20.006 12.9572C20.0718 12.9794 20.1376 12.9572 20.1705 12.8905L20.7186 11.9238C20.7515 11.8572 20.7405 11.7905 20.6857 11.746L20.1157 11.2905C20.1266 11.2016 20.1376 11.1127 20.1376 11.0238C20.1376 10.9349 20.1266 10.8349 20.1157 10.7572L20.6967 10.3016C20.7515 10.2572 20.7624 10.1794 20.7405 10.1127ZM18.0876 11.946C17.5834 11.946 17.1778 11.5238 17.1778 11.0238C17.1778 10.5127 17.5943 10.1016 18.0876 10.1016C18.5809 10.1016 18.9975 10.5238 18.9975 11.0238C18.9975 11.5349 18.5919 11.946 18.0876 11.946ZM4.09987 7.13493H13.4506C13.7466 7.13493 13.9878 6.89049 13.9878 6.59049V6.56826C13.9878 6.42387 13.9312 6.28539 13.8305 6.18328C13.7297 6.08118 13.5931 6.02382 13.4506 6.02382H13.1547C13.1547 4.37937 12.2667 2.96826 10.9622 2.19049V3.24604C10.9622 3.55715 10.721 3.8016 10.4141 3.8016C10.1072 3.8016 9.86599 3.55715 9.86599 3.24604V1.73493C9.5152 1.64604 9.15345 1.57937 8.76977 1.57937C8.38609 1.57937 8.02434 1.64604 7.67355 1.73493V3.24604C7.67355 3.55715 7.43238 3.8016 7.12544 3.8016C6.81849 3.8016 6.57733 3.55715 6.57733 3.24604V2.19049C5.27282 2.96826 4.38488 4.37937 4.38488 6.02382H4.09987C4.02933 6.02382 3.95948 6.0379 3.89431 6.06526C3.82914 6.09262 3.76992 6.13273 3.72005 6.18328C3.67017 6.23384 3.6306 6.29386 3.60361 6.35991C3.57661 6.42597 3.56272 6.49677 3.56272 6.56826V6.6016C3.56272 6.89049 3.80389 7.13493 4.09987 7.13493ZM8.76977 11.5794C10.8087 11.5794 12.5079 10.1572 13.0012 8.24604H4.53835C5.03165 10.1572 6.7308 11.5794 8.76977 11.5794Z" fill="white"/>
</svg>
