<svg width="24" height="26" viewBox="0 0 24 26" fill="none" xmlns="http://www.w3.org/2000/svg">
<path d="M9.11459 5.33402C10.5528 5.33402 11.7188 4.13996 11.7188 2.66701C11.7188 1.19406 10.5528 0 9.11459 0C7.67635 0 6.51043 1.19406 6.51043 2.66701C6.51043 4.13996 7.67635 5.33402 9.11459 5.33402Z" fill="white"/>
<path d="M19.7131 17.3409C19.6541 17.0387 19.4948 16.7668 19.2622 16.5713C19.0295 16.3758 18.738 16.2689 18.4371 16.2687H13.0556L12.497 12.2682H18.4371V9.60122H12.1259L11.9136 8.07836C11.8692 7.76072 11.7143 7.47017 11.4775 7.26001C11.2408 7.04985 10.9379 6.93417 10.6246 6.93422H9.3225C9.13607 6.93485 8.95193 6.97635 8.78247 7.05594C8.613 7.13552 8.46214 7.25134 8.34002 7.39561C8.2179 7.53987 8.12736 7.70925 8.07447 7.89234C8.02159 8.07543 8.0076 8.26799 8.03344 8.45708L9.17537 16.6475C9.26666 17.2817 9.57701 17.8614 10.0501 18.2813C10.5231 18.7011 11.1275 18.9334 11.7535 18.9358H17.3694L18.4618 24.5311C18.5842 25.1539 19.1181 25.6033 19.7392 25.6033H23.6454V22.9363H20.8056L19.7131 17.3409Z" fill="white"/>
<path d="M13.6849 17.8583C12.7227 19.8266 10.7552 21.1921 8.46354 21.1921C6.91007 21.1903 5.42071 20.5575 4.32224 19.4325C3.22377 18.3076 2.60589 16.7823 2.60417 15.1913C2.60636 13.9965 2.95656 12.8294 3.60998 11.8396C4.26339 10.8497 5.1903 10.082 6.27213 9.63459L5.89583 6.93425C2.48047 8.05039 0 11.3295 0 15.1913C0 19.9706 3.79687 23.8591 8.46354 23.8591C9.9151 23.857 11.3417 23.4725 12.6062 22.7424C13.8707 22.0124 14.9304 20.9614 15.6836 19.6905L15.3268 17.8583H13.6849Z" fill="white"/>
</svg>
