<svg width="29" height="25" viewBox="0 0 29 25" fill="none" xmlns="http://www.w3.org/2000/svg">
<path d="M24.1113 9.92479C23.4152 8.29007 22.3285 6.85121 20.9465 5.73452C19.5646 4.61783 17.9296 3.85745 16.1852 3.52013L17.761 0.998869L16.1628 0L14.0835 3.32689C11.9655 3.33672 9.89678 3.96685 8.13293 5.13942C6.36908 6.31199 4.98741 7.97563 4.15862 9.92479C3.04847 9.94589 1.99092 10.4017 1.21328 11.1943C0.43564 11.9868 0 13.0529 0 14.1632C0 15.2736 0.43564 16.3396 1.21328 17.1321C1.99092 17.9247 3.04847 18.3805 4.15862 18.4016C4.99094 20.3588 6.38055 22.0279 8.15444 23.2012C9.92833 24.3744 12.0081 25 14.1349 25C16.2617 25 18.3415 24.3744 20.1154 23.2012C21.8893 22.0279 23.2789 20.3588 24.1113 18.4016C25.2214 18.3805 26.279 17.9247 27.0566 17.1321C27.8342 16.3396 28.2699 15.2736 28.2699 14.1632C28.2699 13.0529 27.8342 11.9868 27.0566 11.1943C26.279 10.4017 25.2214 9.94589 24.1113 9.92479ZM25.7104 15.8129C25.2794 16.2537 24.6919 16.5068 24.0755 16.5173L22.8548 16.5405L22.377 17.6639C21.6895 19.281 20.5415 20.6601 19.076 21.6295C17.6105 22.5989 15.8921 23.1158 14.135 23.1158C12.3778 23.1158 10.6595 22.5989 9.19395 21.6295C7.72841 20.6601 6.58042 19.281 5.89292 17.6639L5.41504 16.5405L4.19443 16.5173C3.57771 16.5058 2.99014 16.2527 2.55808 15.8125C2.12602 15.3722 1.88396 14.78 1.88396 14.1632C1.88396 13.5464 2.12602 12.9542 2.55808 12.514C2.99014 12.0737 3.57771 11.8206 4.19443 11.8091L5.41504 11.7859L5.89292 10.6625C6.58044 9.04546 7.72844 7.66637 9.19397 6.69698C10.6595 5.72758 12.3778 5.2107 14.135 5.2107C15.8921 5.2107 17.6104 5.72758 19.076 6.69698C20.5415 7.66637 21.6895 9.04546 22.377 10.6625L22.8548 11.7859L24.0755 11.8091C24.5354 11.8178 24.9828 11.9611 25.3622 12.2212C25.7417 12.4814 26.0366 12.847 26.2105 13.2729C26.3845 13.6989 26.4298 14.1664 26.3409 14.6178C26.252 15.0692 26.0328 15.4847 25.7104 15.8129Z" fill="white"/>
<path d="M8.95216 11.8074H11.308V14.1632H8.95216V11.8074Z" fill="white"/>
<path d="M16.962 11.8074H19.3178V14.1632H16.962V11.8074Z" fill="white"/>
<path d="M14.135 20.7595C14.7537 20.7595 15.3664 20.6376 15.938 20.4008C16.5097 20.1641 17.0291 19.817 17.4666 19.3795C17.9041 18.942 18.2512 18.4226 18.488 17.8509C18.7247 17.2793 18.8466 16.6666 18.8466 16.0479H9.42333C9.42333 16.6666 9.5452 17.2793 9.78198 17.8509C10.0188 18.4226 10.3658 18.942 10.8033 19.3795C11.6869 20.2631 12.8854 20.7595 14.135 20.7595Z" fill="white"/>
</svg>
