<svg width="16" height="31" viewBox="0 0 16 31" fill="none" xmlns="http://www.w3.org/2000/svg">
<path fill-rule="evenodd" clip-rule="evenodd" d="M7.96887 5.39195C8.46756 5.39195 8.94583 5.18906 9.29846 4.82793C9.65109 4.46679 9.84919 3.97698 9.84919 3.46625C9.84919 2.95553 9.65109 2.46572 9.29846 2.10458C8.94583 1.74344 8.46756 1.54056 7.96887 1.54056C7.47018 1.54056 6.99191 1.74344 6.63928 2.10458C6.28665 2.46572 6.08855 2.95553 6.08855 3.46625C6.08855 3.97698 6.28665 4.46679 6.63928 4.82793C6.99191 5.18906 7.47018 5.39195 7.96887 5.39195ZM7.96887 6.93251C8.86652 6.93251 9.7274 6.56731 10.3621 5.91726C10.9969 5.26722 11.3535 4.38556 11.3535 3.46625C11.3535 2.54695 10.9969 1.66529 10.3621 1.01524C9.7274 0.365193 8.86652 0 7.96887 0C7.07123 0 6.21034 0.365193 5.57561 1.01524C4.94088 1.66529 4.58429 2.54695 4.58429 3.46625C4.58429 4.38556 4.94088 5.26722 5.57561 5.91726C6.21034 6.56731 7.07123 6.93251 7.96887 6.93251Z" fill="#CE0033"/>
<path fill-rule="evenodd" clip-rule="evenodd" d="M5.6824 10.0136C4.65199 10.0136 3.95401 10.5259 3.49521 11.1929C3.07176 11.8099 2.82131 12.6018 2.61748 13.2858C2.46705 13.7941 2.43922 13.9004 2.36852 14.1785L2.36627 14.187C2.26699 14.5744 2.09174 15.2623 1.46747 17.5208C1.36594 17.8882 1.56675 18.328 2.02029 18.4551C2.48661 18.5868 2.91908 18.2995 3.02664 17.9121C3.71107 15.4318 3.85849 14.8433 3.93145 14.549L3.9322 14.5467C3.99087 14.3118 4.01117 14.2309 4.16837 13.704C4.37896 12.9954 4.57452 12.4277 4.84303 12.0371L4.84453 12.0341L4.85055 12.0256L6.12089 12.698L3.14246 23.7246C4.02998 23.9664 5.43947 24.2638 7.96963 24.2638C10.4201 24.2638 11.9559 23.9842 12.8036 23.7515L9.81761 12.698L11.0865 12.0233L11.0955 12.0371C11.364 12.4277 11.5595 12.9954 11.7701 13.7048C11.9266 14.2317 11.9476 14.3118 12.0063 14.5467V14.549C12.08 14.8433 12.2267 15.4325 12.9119 17.9121C13.0194 18.2995 13.4511 18.5868 13.9182 18.4551C14.3718 18.328 14.5726 17.8882 14.471 17.5208C14.164 16.4268 13.8682 15.3296 13.5835 14.2294L13.57 14.1785C13.4993 13.9004 13.4722 13.7934 13.321 13.285C13.118 12.6018 12.8667 11.8099 12.4425 11.1929C11.9837 10.5259 11.2865 10.0136 10.2569 10.0136H5.6824ZM14.9622 13.7834C15.0577 14.1577 15.2307 14.8371 15.8519 17.084C15.9336 17.3773 15.9578 17.6843 15.9232 17.9872C15.8885 18.2901 15.7956 18.583 15.6499 18.849C15.5042 19.115 15.3086 19.3488 15.0742 19.537C14.8399 19.7252 14.5715 19.8641 14.2845 19.9456C13.9593 20.0371 13.618 20.0518 13.2864 19.9887L14.1988 23.3664C14.4026 24.1213 14.0378 24.9948 13.2436 25.2205C12.2718 25.4978 10.5916 25.8043 7.96888 25.8043C5.3101 25.8043 3.77952 25.4885 2.77618 25.2143C1.97892 24.9963 1.53817 24.1143 1.75855 23.2963L2.65283 19.9887C2.32791 20.0504 1.98719 20.0388 1.654 19.9456C1.36702 19.8641 1.09863 19.7252 0.864288 19.537C0.629946 19.3488 0.434287 19.115 0.288586 18.849C0.142885 18.583 0.0500224 18.2901 0.01535 17.9872C-0.0193224 17.6843 0.0048809 17.3773 0.0865643 17.084C0.707071 14.8371 0.880812 14.1585 0.976333 13.7834V13.7811C1.05455 13.476 1.0869 13.352 1.24559 12.8182C1.4434 12.1535 1.75328 11.129 2.33543 10.2809C3.01987 9.2834 4.12324 8.47306 5.6824 8.47306H10.2561C11.8138 8.47306 12.9171 9.2834 13.6023 10.2809C14.1845 11.1282 14.4943 12.1527 14.6929 12.8182C14.8433 13.3266 14.8794 13.4629 14.9501 13.7387L14.9614 13.7834H14.9622Z" fill="#CE0033"/>
<path fill-rule="evenodd" clip-rule="evenodd" d="M4.20823 26.9705V29.5687C4.20827 29.8485 4.30746 30.1188 4.48738 30.3294C4.66731 30.54 4.91574 30.6765 5.18654 30.7137C5.45735 30.7509 5.73213 30.6861 5.95985 30.5315C6.18757 30.3769 6.35276 30.1429 6.42475 29.8729L7.11671 27.2733C6.1429 27.222 5.1722 27.1209 4.20823 26.9705ZM9.57091 27.2679L10.2651 29.8729C10.3371 30.1428 10.5022 30.3768 10.7299 30.5314C10.9575 30.686 11.2322 30.7508 11.503 30.7137C11.7737 30.6767 12.0221 30.5403 12.2021 30.3298C12.3821 30.1194 12.4814 29.8492 12.4816 29.5695V26.9597C11.5167 27.1096 10.5454 27.2124 9.57091 27.2679Z" fill="#CE0033"/>
</svg>
